<?xml version="1.0" encoding="utf-8"?>
<!-- Generator: Adobe Illustrator 27.6.1, SVG Export Plug-In . SVG Version: 6.00 Build 0)  -->
<svg version="1.1" id="Layer_1" xmlns="http://www.w3.org/2000/svg" xmlns:xlink="http://www.w3.org/1999/xlink" x="0px" y="0px"
	 viewBox="0 0 500 500" style="enable-background:new 0 0 500 500;" xml:space="preserve">
<style type="text/css">
	.st0{fill:#FFFFFF;}
</style>
<path d="M249.71,16.16c-23.22,0-45.09,5.64-64.22,15.59c-42.78,22.27-71.87,66.07-71.87,116.46c0,40.09,18.41,75.99,47.48,100.19
	c8.36,6.98,17.59,12.97,27.53,17.83c12.22,5.97,25.49,10.2,39.48,12.36c0,0,0-0.02,0.02,0c10.56-3.41,22.12-5.29,34.24-5.29
	c7.97,0,15.7,0.81,23.05,2.34h0.02c25.49-6.7,48-20.39,65.22-38.85c21.83-23.42,35.15-54.49,35.15-88.58
	C385.8,75.28,324.89,16.16,249.71,16.16z M188.64,230.41l1.08-24.75l0.71-16.17c-0.63-0.61-1.22-1.24-1.81-1.86
	c-10.53-11.25-16.83-25.49-16.83-40.98c0-15.49,6.31-29.73,16.83-40.98c14.27-15.25,36.32-25.04,61.09-25.04
	c43.04,0,77.92,29.56,77.92,66.02s-34.88,66.02-77.92,66.02c-13.46,0-26.1-2.88-37.15-7.97l-6.93,7.56l-16.42,17.87
	C189.01,230.22,188.83,230.31,188.64,230.41z"/>
<path d="M350.65,236.8c-24.49-15.2-54.41-24.14-86.68-24.14c-27.22,0-52.75,6.36-74.77,17.46c-0.19,0.1-0.37,0.19-0.56,0.29
	c-0.02,0-0.02,0-0.02,0.02c-9.97,5.07-19.19,11.12-27.53,17.98c-29.22,24.09-47.48,58.32-47.48,96.29
	c0,48.17,29.37,90.33,73.24,113.38c22.54,11.86,48.92,18.68,77.11,18.68c83.04,0,150.35-59.12,150.35-132.06
	C414.31,300.12,389.16,260.71,350.65,236.8z M262.36,416.11c-18.64,0-35.97-4.44-50.36-12.07l-6.37,6.95l-17,18.49l1.1-25.09
	l0.71-16.29c-0.61-0.63-1.22-1.27-1.81-1.93c-10.59-11.7-16.83-26.02-16.83-41.48c0-15.46,6.24-29.78,16.83-41.46
	c9.88-10.9,23.54-19.51,39.48-24.65c0,0,0-0.02,0.02,0c10.56-3.41,22.12-5.29,34.24-5.29c7.97,0,15.7,0.81,23.05,2.34h0.02
	c38.83,8.05,67.48,35.92,67.48,69.05C352.9,384.14,312.36,416.11,262.36,416.11z"/>
<path d="M188.62,105.66c-9.23,11.25-14.77,25.49-14.77,40.98c0,15.49,5.53,29.73,14.77,40.98v115.62
	c-9.29,11.68-14.77,26-14.77,41.46c0,15.46,5.47,29.78,14.77,41.48v61.95c0,3.51-0.55,6.85-1.55,9.95
	c-3.55,10.9-12.76,18.68-23.55,18.68h-24.79c-13.87,0-25.12-12.81-25.12-28.63V44.79c0-15.81,11.24-28.63,25.12-28.63h24.79
	c9.74,0,18.2,6.34,22.35,15.59c1.75,3.9,2.75,8.34,2.75,13.03V105.66z"/>
<path class="st0" d="M189.2,230.12l-0.58,0.63l0.02-0.34C188.83,230.31,189.01,230.22,189.2,230.12z"/>
</svg>
